<svg width="26" height="15" viewBox="0 0 26 15" fill="none" xmlns="http://www.w3.org/2000/svg">
<path d="M4.04859 6.08235L4.05881 6.07202C4.07926 6.05137 4.08949 6.03071 4.10993 6.01006L4.04859 6.08235Z" fill="black"/>
<path d="M25.5116 9.4079C24.755 7.09447 23.3953 5.08056 21.6266 3.50041V3.49008C21.6266 3.49008 20.3588 2.18878 18.1198 1.17666C17.4144 0.856496 16.484 0.515679 15.4821 0.309123C14.9812 0.205846 14.4597 0.112896 13.9077 0.0715845C13.8361 0.0612568 13.7645 0.0612568 13.693 0.0612568C13.5192 0.050929 13.3454 0.0302734 13.1613 0.0199456C13.1613 0.0199456 8.39709 -0.455132 4.14404 3.23188C4.08269 3.30418 4.01113 3.36615 3.94979 3.41779C3.78621 3.5727 3.62263 3.71729 3.45905 3.88254C3.31592 4.02712 3.16256 4.18204 3.01943 4.34728C2.94786 4.41958 2.88652 4.48155 2.81496 4.55384V4.56417C1.58811 5.95842 0.627084 7.60053 0.0443336 9.41822C-0.149917 10.0276 0.320373 10.6162 0.944019 10.6162C1.38364 10.6162 1.77214 10.3167 1.91527 9.8933C2.38556 8.4784 3.12167 7.19775 4.05202 6.09268C4.09292 6.03071 4.14404 5.97907 4.19515 5.91711C4.31784 5.78285 4.44052 5.64859 4.57343 5.52465C5.49356 4.59515 7.33383 3.06664 9.93065 2.36435C10.0022 2.3437 10.0636 2.32304 10.1351 2.30239C10.2783 2.2714 10.4214 2.24042 10.5645 2.20943C10.8201 2.1578 11.0757 2.11648 11.3313 2.07517C11.454 2.05452 11.5767 2.04419 11.6993 2.03386C11.9652 2.01321 12.231 1.99255 12.4968 1.99255C12.6604 1.99255 12.824 1.98222 12.9875 1.98222C13.468 1.99255 13.9486 2.04419 14.4189 2.12681C14.7153 2.17845 15.022 2.23009 15.3083 2.29206C16.5658 2.61222 18.2323 3.25254 19.8885 4.56417C20.1441 4.77072 20.4099 4.98761 20.6553 5.21482C21.9844 6.49546 23.0272 8.07561 23.6406 9.87265C23.7838 10.2961 24.1723 10.5956 24.6119 10.5956C25.2457 10.6059 25.716 10.0172 25.5116 9.4079Z" fill="black"/>
<path d="M12.3195 14.3136C15.171 14.3136 17.4825 11.9508 17.4825 9.0361C17.4825 6.12142 15.171 3.7586 12.3195 3.7586C9.46811 3.7586 7.15658 6.12142 7.15658 9.0361C7.15658 11.9508 9.46811 14.3136 12.3195 14.3136Z" fill="black"/>
</svg>
